<svg xmlns="http://www.w3.org/2000/svg"><symbol id="mecha-stilts" viewBox="0 0 190 220"><path d="M91.4 69.9l-28.6 40H43.5c5.6-21.9 24.9-38.6 47.9-40zm1.8 3.6v36.3H67.3l25.9-36.3zm-48.4 53.4h48.4v19.98H44.8zm52 0h8.1v19.98h-8.1zm11.7 0h36.7v19.98h-36.7zm38-17.1H96.8V69.7a53.5 53.5 0 0 1 49.7 40.1zm-112 3.6h120.9v9.9H34.5z"/><path d="M95 .4L.1 55.2v109.6L95 219.6l94.9-54.8V55.2zm77.6 126.5h-23.8v21.8a1.7 1.7 0 0 1-1.8 1.8H43a1.7 1.7 0 0 1-1.8-1.8v-21.8H17.4a1.8 1.8 0 0 1 0-3.6h13.5v-11.7a1.7 1.7 0 0 1 1.8-1.8h7a57.1 57.1 0 0 1 55.1-43.7c.2-.2.4-.2.7 0a56.9 56.9 0 0 1 54.7 43.7h7a1.7 1.7 0 0 1 1.8 1.8v11.7h13.5a1.8 1.8 0 1 1 0 3.6z"/></symbol><symbol id="space-bubbles" viewBox="0 0 190 220"><path d="M73.9 135l-30.4 16-2.5-3.6 15.8-18.7h11.9l5.2 6.3zm2.6 2.9l7.3 9H59.4l17.1-9zm40.1-9.2l-15.1 18.2h-13l-15.1-18.2h43.2zm-3.1 9.2l17.1 9h-24.4l7.3-9zm-54.3-25.7c-1.8-4.1-2.2-9-2.2-13.7a39 39 0 0 1 77.9 0 43.5 43.5 0 0 1-2.2 13.7zm-12.4 3.6h98.5v9.36H46.8zm86.4 12.9l15.8 18.9-2.5 3.4-30.6-16 5.4-6.3h11.9z"/><path d="M95 .4L.1 55.2v109.6L95 219.6l94.9-54.8V55.2zm57.6 148.1l-4.1 5.9a1.9 1.9 0 0 1-2.3.5l-8.6-4.5H52.3l-8.6 4.6a2 2 0 0 1-2.3-.5l-4.1-5.9a1.9 1.9 0 0 1 .2-2.2l14.9-17.6H45a1.7 1.7 0 0 1-1.8-1.8v-13a1.7 1.7 0 0 1 1.8-1.8h10.4a50.3 50.3 0 0 1-2-13.7 42.6 42.6 0 0 1 85.1 0 44.2 44.2 0 0 1-2 13.7H147a1.7 1.7 0 0 1 1.8 1.8v13a1.7 1.7 0 0 1-1.8 1.8h-9.2l14.8 17.6a1.9 1.9 0 0 1 0 2.1z"/></symbol><symbol id="super-domes" viewBox="0 0 190 220"><path d="M52.5 135.6H64v11.34H52.5zm15.1 0h18v11.34h-18zm21.6 0h11.5v11.34H89.2zm15.2 0h18v11.34h-18zm30.2-39.1H55.4c.9-23.2 18.5-36 39.6-36s38.7 12.8 39.6 36zm-8.6 39.1h11.5v11.34H126zm-84.3-35.5V132h106.6v-31.9zm96.3 23.2H94.1a1.8 1.8 0 0 1 0-3.6H138a1.8 1.8 0 0 1 0 3.6z"/><path d="M95 .4L.1 55.2v109.6L95 219.6l94.9-54.8V55.2zm56.9 133.4a1.7 1.7 0 0 1-1.8 1.8h-9v11.3h9a1.8 1.8 0 1 1 0 3.6H39.9a1.8 1.8 0 1 1 0-3.6h9v-11.3h-9a1.7 1.7 0 0 1-1.8-1.8V98.3a1.7 1.7 0 0 1 1.8-1.8h11.9c.9-25.6 20-39.6 43.2-39.6s42.3 14 43.2 39.6h11.9a1.7 1.7 0 0 1 1.8 1.8z"/></symbol></svg>